# xmcd
#
# Track frame offsets: 
#        150
#        13669
#        27670
#        40905
#        54745
#        68886
#        82097
#        94434
#        108357
#        122728
#        136967
#        150369
#        164808
#        177066
#        189619
#        202592
#        217498
#        230134
#        243264
#        256226
#        270367
#        281467
#        294918
#        308378
#        319997
#
# Disc length: 4439 seconds
#
# Revision: 1
# Processed by: cddbd v1.5.1PL2 Copyright (c) Steve Scherf et al.
# Submitted via: ExactAudioCopy v0.95a5
#
DISCID=6c115519
DTITLE=Roosevelt Sykes - Nasty But It's Clean
DYEAR=2000
DGENRE=Blues
TTITLE0="44" Blues
TTITLE1=Henry Ford Blues
TTITLE2=Boot That Thing
TTITLE3=Skeet And Garret
TTITLE4=32-20 Blues
TTITLE5=3, 6 And 9
TTITLE6=Kelly Special
TTITLE7=Nasty But It's Clean
TTITLE8=Highway 61 Blues
TTITLE9=D.B.A. Blues
TTITLE10=Dirty Mother For You
TTITLE11=Jet Black Snake
TTITLE12=The Honeydripper
TTITLE13=Night Time Is The Right Time
TTITLE14=Monte Carlo Blues
TTITLE15=Mistake In Live
TTITLE16=Journey From The Germs
TTITLE17=Yellow Yam Blues
TTITLE18=Eight Ball Blues
TTITLE19=47th Street Jive
TTITLE20=K.M.A. Blues
TTITLE21=Let The Black Have His Way
TTITLE22=Boogie Honky Tonk
TTITLE23=High As A Georgia Pine
TTITLE24=West Helena Woman
EXTD=
EXTT0=
EXTT1=
EXTT2=
EXTT3=
EXTT4=
EXTT5=
EXTT6=
EXTT7=
EXTT8=
EXTT9=
EXTT10=
EXTT11=
EXTT12=
EXTT13=
EXTT14=
EXTT15=
EXTT16=
EXTT17=
EXTT18=
EXTT19=
EXTT20=
EXTT21=
EXTT22=
EXTT23=
EXTT24=
PLAYORDER=
